#!OML:ASF E:\acrobat2\Project_11_07_03\Capture day 1\Session 1\Acrobat.ASF
:FULLY-SPECIFIED
:DEGREES
1
root 10.8019 21.5556 14.6776 3.26906 -1.03258 3.94049
lowerback -5.61822 -2.58025 -3.6127
upperback -0.154625 -3.1995 -0.163747
thorax 3.17743 -1.64441 1.58514
lowerneck 12.5997 -17.9178 -23.4512
upperneck 3.91519 -27.7751 19.3859
head 5.18829 -14.4329 7.93633
rclavicle -1.97387e-014 -3.97569e-015
rhumerus -35.3661 1.29017 -84.2432
rradius 22.9665
rwrist 6.22123
rhand -4.96771 -40.416
rfingers 7.12502
rthumb 20.8244 -69.3184
lclavicle -1.97387e-014 -3.97569e-015
lhumerus -33.2508 5.03877 85.0464
lradius 24.5386
lwrist 1.50911
lhand -2.65105 -13.6967
lfingers 7.12502
lthumb 23.0488 14.945
rfemur 6.53737 13.0758 11.8815
rtibia -3.72141
rfoot -19.3804 -15.2956
rtoes 13.2372
lfemur 2.59883 0.700703 -17.1116
ltibia 1.20674
lfoot -6.60562 1.08038
ltoes 9.02751
2
root 10.7903 21.5183 14.6357 4.10822 -0.789928 3.59888
lowerback -6.00169 -2.74497 -3.50929
upperback -0.40587 -3.42209 0.0831383
thorax 3.1539 -1.75169 1.75054
lowerneck 17.8876 -17.2179 -14.3043
upperneck -7.55215 -24.6883 16.9123
head -1.12361 -13.0307 7.977
rclavicle 1.26477e-014 2.70347e-014
rhumerus -35.1495 0.993463 -83.9373
rradius 22.7738
rwrist 6.62202
rhand -4.73011 -40.52
rfingers 7.12502
rthumb 21.0527 -69.3972
lclavicle 1.26477e-014 2.70347e-014
lhumerus -33.2426 4.78634 85.2726
lradius 24.9301
lwrist 2.22288
lhand -2.43322 -13.3053
lfingers 7.12502
lthumb 23.2578 15.3101
rfemur 5.41854 13.4267 12.2555
rtibia -3.49629
rfoot -20.213 -15.7593
rtoes 13.8481
lfemur 1.19077 1.54798 -16.4102
ltibia 1.8254
lfoot -6.28119 0.224381
ltoes 5.87397
3
root 10.774 21.5075 14.5862 4.29992 -0.324806 3.52776
lowerback -5.66889 -2.92035 -3.77364
upperback -0.512845 -3.65822 0.20865
thorax 2.89572 -1.86863 2.02526
lowerneck 15.6364 -17.8846 -13.293
upperneck -5.59186 -25.3796 14.6564
head -0.52818 -13.1999 6.84396
rclavicle -1.95865e-014 -1.35174e-014
rhumerus -35.0576 0.501751 -83.6704
rradius 22.6342
rwrist 6.87469
rhand -4.85958 -40.4475
rfingers 7.12502
rthumb 20.9283 -69.3385
lclavicle -1.95865e-014 -1.35174e-014
lhumerus -33.1357 4.57729 85.3787
lradius 24.9901
lwrist 2.48011
lhand -2.43067 -13.1731
lfingers 7.12502
lthumb 23.2603 15.442
rfemur 5.14671 14.2571 12.5717
rtibia -3.44035
rfoot -21.2275 -16.6846
rtoes 14.3854
lfemur 0.455186 1.70141 -16.0901
ltibia 2.41134
lfoot -6.28813 -0.441785
ltoes 2.34088
4
root 10.7915 21.5064 14.5866 4.20924 -0.574642 3.42219
lowerback -5.74272 -2.82099 -3.48931
upperback -0.464258 -3.53915 0.176331
thorax 2.96008 -1.80715 1.83917
lowerneck 14.3645 -18.1127 -13.519
upperneck -3.85541 -25.7381 13.8621
head 0.147952 -13.3106 6.37649
rclavicle -4.02539e-014 -1.19271e-014
rhumerus -35.1098 0.178561 -83.494
rradius 22.5442
rwrist 7.0039
rhand -5.04035 -40.4383
rfingers 7.12502
rthumb 20.7546 -69.3484
lclavicle -4.02539e-014 -1.19271e-014
lhumerus -33.1136 4.7585 85.2517
lradius 24.7962
lwrist 1.91485
lhand -2.43615 -13.4082
lfingers 7.12502
lthumb 23.255 15.2075
rfemur 5.0741 13.3712 12.4759
rtibia -3.35449
rfoot -20.8531 -15.6695
rtoes 13.1373
lfemur 0.829707 1.56193 -16.113
ltibia 2.06107
lfoot -6.56827 -0.136169
ltoes 5.04199
5
root 10.7979 21.4985 14.5673 4.2996 -0.498382 3.25443
lowerback -5.73434 -2.85913 -3.31398
upperback -0.483613 -3.6038 0.239607
thorax 2.93246 -1.83696 1.80188
lowerneck 14.2036 -18.1734 -12.4782
upperneck -4.3059 -25.6128 12.9664
head -0.227007 -13.2097 6.07071
rclavicle -2.12389e-014 9.93923e-015
rhumerus -35.0717 -0.0822427 -83.3089
rradius 22.4591
rwrist 7.13232
rhand -5.16518 -40.4524
rfingers 7.12502
rthumb 20.6347 -69.3756
lclavicle -2.12389e-014 9.93923e-015
lhumerus -33.0624 4.79555 85.2331
lradius 24.7716
lwrist 1.67858
lhand -2.35675 -13.4002
lfingers 7.12502
lthumb 23.3312 15.2059
rfemur 4.83928 12.9145 12.5801
rtibia -3.24012
rfoot -20.9477 -15.306
rtoes 12.3736
lfemur 0.683004 1.6025 -15.9293
ltibia 2.08168
lfoot -6.64816 -0.270898
ltoes 5.96429
